<?xml version="1.0" encoding="UTF-8"?> <svg xmlns="http://www.w3.org/2000/svg" width="67" height="67" viewBox="0 0 67 67" fill="none"><path d="M16.1916 17.0291C13.9582 14.7958 4.46662 14.2375 1.39575 13.9583C1.11662 13.9583 0.837369 13.9583 0.558246 14.2374C0.279123 14.5166 0 15.075 0 15.3541V40.4791C0 41.3166 0.558377 41.875 1.39588 41.875H9.77088C10.3293 41.875 10.8875 41.5959 11.1668 41.0375C11.1668 40.2 16.1918 25.4041 16.7501 18.1459C16.75 17.8666 16.75 17.3084 16.1916 17.0291Z" fill="white"></path><path d="M46.0625 23.7291C43.2709 22.8916 40.7584 21.775 38.525 20.9375C33.5 18.7041 31.2667 19.8209 26.8 24.2875C24.8459 26.2416 23.45 29.0334 23.7292 30.15C23.7292 30.4291 23.7292 30.4291 24.2875 30.7084C25.6834 31.2667 27.6375 31.5459 29.5917 28.475C29.8708 28.1959 30.15 27.9166 30.7083 27.9166C31.5458 27.9166 31.8249 27.6375 32.6624 27.3582C33.2208 27.0791 33.779 26.7998 34.6165 26.5207C34.8957 26.5207 34.8957 26.5207 35.1749 26.5207C35.454 26.5207 36.0124 26.7998 36.2915 26.7998C37.6875 28.1959 40.2 30.15 42.7125 32.3834C46.6209 35.4542 50.5292 38.8042 52.4834 41.3167H52.7625C50.8084 35.7334 47.4584 26.2416 46.0625 23.7291Z" fill="white"></path><path d="M65.6041 16.75C54.7166 16.75 48.575 19.5416 48.2958 19.5416C48.0166 19.8207 47.7374 20.1 47.4583 20.3791C47.4583 20.6582 47.4583 21.2166 47.7374 21.4957C49.4124 24.2874 54.9958 39.6416 55.8333 43.5499C56.1124 44.1082 56.6708 44.6665 57.2291 44.6665H65.6041C66.4416 44.6665 67 44.1081 67 43.2706V18.1456C67 17.3084 66.4416 16.75 65.6041 16.75Z" fill="white"></path><path d="M50.529 44.1085C49.4124 41.596 44.6665 37.9669 40.479 34.6169C38.2457 32.6626 36.0124 30.9876 34.3374 29.5917C34.0582 29.8709 33.4999 29.8709 33.4999 30.1501C32.6624 30.4292 32.3832 30.7085 31.2665 30.7085C29.0332 33.5001 26.2415 34.6167 23.1707 33.5001C21.7748 33.221 20.9373 32.1042 20.6582 30.9876C20.0998 28.196 22.6123 24.2876 24.5666 22.3335H18.9832C17.8666 27.9169 15.9123 35.1751 14.5166 39.0835C15.6332 40.2001 16.75 41.596 17.5875 42.1544C22.8916 46.621 29.0334 51.0878 30.15 51.9253C30.9875 52.4836 32.6625 53.0419 33.5 53.0419C33.7791 53.0419 34.0584 53.0419 34.3375 53.0419L29.8707 48.5751C29.3123 48.0167 29.3123 47.1792 29.8707 46.621C30.4291 46.0628 31.2666 46.0626 31.8248 46.621L37.4082 52.2044C37.9666 52.7628 38.5249 52.4835 39.0832 52.4835C39.9207 52.2044 40.1999 51.646 40.4791 50.8085L34.0582 44.3876C33.4999 43.8292 33.4999 42.9917 34.0582 42.4335C34.6166 41.8753 35.4541 41.8751 36.0124 42.4335L42.9915 49.4126C43.2706 49.6917 44.3874 49.6917 45.2249 49.4126C45.504 49.1335 46.0624 48.8542 46.3415 48.296L38.5249 40.4792C37.9665 39.9209 37.9665 39.0834 38.5249 38.5251C39.0832 37.9669 39.9207 37.9667 40.479 38.5251L48.5749 46.621C49.1332 46.9001 49.6915 46.621 50.2499 46.3419C50.529 46.0626 51.0874 45.2251 50.529 44.1085Z" fill="white"></path></svg> 