<?xml version="1.0" encoding="UTF-8"?> <svg xmlns="http://www.w3.org/2000/svg" width="57" height="57" viewBox="0 0 57 57" fill="none"><g clip-path="url(#clip0)"><path d="M37.6184 39.947L40.225 35.7174L44.9288 34.1132L45.4499 29.1728L48.9889 25.6887L47.3063 21.0123L48.9889 16.3357L45.45 12.8517L44.9289 7.91142L40.2251 6.30718L37.6185 2.07749L32.6884 2.67277L28.5003 0L24.3123 2.67299L19.3822 2.07772L16.7757 6.30729L12.0719 7.91153L11.5507 12.8518L8.01172 16.3358L9.69433 21.0124L8.01172 25.689L11.5506 29.1729L12.0717 34.1133L16.7756 35.7175L19.3821 39.9471L24.3123 39.3519L28.5003 42.0248L32.6884 39.3519L37.6184 39.947ZM14.0912 21.0124C14.0912 13.0673 20.5552 6.60332 28.5003 6.60332C36.4455 6.60332 42.9094 13.0673 42.9094 21.0124C42.9094 28.9576 36.4455 35.4215 28.5003 35.4215C20.5552 35.4215 14.0912 28.9576 14.0912 21.0124Z" fill="white"></path><path d="M28.5002 9.94531C22.3978 9.94531 17.4331 14.91 17.4331 21.0124C17.4331 27.1149 22.3978 32.0796 28.5002 32.0796C34.6027 32.0796 39.5674 27.1149 39.5674 21.0124C39.5674 14.91 34.6027 9.94531 28.5002 9.94531Z" fill="white"></path><path d="M23.5233 42.8132L17.6585 43.5213L14.5599 38.4929L13.5065 38.1338L8.96289 52.3355L17.1427 51.8856L23.5424 57L27.3084 45.2291L23.5233 42.8132Z" fill="white"></path><path d="M42.4394 38.493L39.3407 43.5213L33.4761 42.8132L29.6909 45.2291L33.4569 57L39.8566 51.8856L48.0365 52.3355L43.4928 38.1338L42.4394 38.493Z" fill="white"></path></g><defs><clipPath id="clip0"><rect width="57" height="57" fill="white"></rect></clipPath></defs></svg> 