<svg width="57" height="57" viewBox="0 0 57 57" fill="none" xmlns="http://www.w3.org/2000/svg">
<path d="M28.5 25.6055C35.5593 25.6055 41.3027 19.8621 41.3027 12.8027C41.3027 5.7434 35.5593 0 28.5 0C21.4407 0 15.6973 5.7434 15.6973 12.8027C15.6973 19.8621 21.4407 25.6055 28.5 25.6055Z" fill="white"/>
<path d="M34.5726 25.6055H33.5098V33.7898L35.7037 44.7604C35.8233 45.3584 35.6076 45.9742 35.1405 46.3664L29.5741 51.0422C29.2636 51.3031 28.8818 51.4336 28.5 51.4336C28.1182 51.4336 27.7364 51.3031 27.4259 51.0422L21.8595 46.3664C21.3924 45.9742 21.1767 45.3584 21.2959 44.7604L23.4902 33.7898V25.6055H22.4274C12.5779 25.6055 4.56445 34.3452 4.56445 45.0879V55.3301C4.56445 56.2524 5.312 57 6.23438 57H50.7656C51.688 57 52.4355 56.2524 52.4355 55.3301V45.0879C52.4355 34.3452 44.4221 25.6055 34.5726 25.6055Z" fill="white"/>
<path d="M24.7646 44.4456L28.4998 47.5828L32.2349 44.4456L30.4706 35.625H26.5289L24.7646 44.4456Z" fill="white"/>
<path d="M26.8301 28.9453H30.1699V32.2852H26.8301V28.9453Z" fill="white"/>
</svg>
