<svg width="88" height="88" viewBox="0 0 88 88" fill="none" xmlns="http://www.w3.org/2000/svg">
<g clip-path="url(#clip0)">
<path d="M86.7109 12.5059C87.4233 12.5059 88 11.9292 88 11.2169V7.99219C88 6.33386 86.6505 4.98438 84.9922 4.98438H47.2287C45.5704 4.98438 44.2209 6.33386 44.2209 7.99219V20.4155H3.00781C1.34949 20.4155 0 21.765 0 23.4233V68.041C0 69.6993 1.34949 71.0488 3.00781 71.0488H51.2053V79.8413C51.2053 81.0619 51.9338 82.1529 53.0624 82.6202C53.4363 82.7753 53.8284 82.8505 54.2165 82.8505C54.9973 82.8505 55.7634 82.545 56.3401 81.9676L67.2589 71.0488H78.6597C80.3187 71.0488 81.6675 69.6993 81.6675 68.041V27.4402H84.9922C86.6505 27.4402 88 26.0908 88 24.4324V17.1506C88 16.4389 87.4233 15.8615 86.7109 15.8615C85.9986 15.8615 85.4219 16.4389 85.4219 17.1506V24.4324C85.4219 24.6688 85.2292 24.8621 84.9922 24.8621H74.9576C74.6159 24.8621 74.2876 24.9977 74.0459 25.2394L69.5664 29.7189C69.3898 29.8955 69.1978 29.8525 69.0984 29.8116C68.9991 29.7706 68.8333 29.6646 68.8333 29.4148V26.1512C68.8333 25.4395 68.2559 24.8621 67.5442 24.8621H62.7794C62.067 24.8621 61.4903 25.4395 61.4903 26.1512C61.4903 26.8629 62.067 27.4402 62.7794 27.4402H66.2551V29.4148C66.2551 30.636 66.9836 31.7264 68.1115 32.1937C68.4861 32.3488 68.8776 32.424 69.2656 32.424C70.0471 32.424 70.8132 32.1185 71.3899 31.5417L75.4914 27.4402H79.0894V68.0417C79.0894 68.278 78.8967 68.4714 78.6597 68.4714H66.7251C66.3827 68.4714 66.0551 68.607 65.8134 68.8487L54.5166 80.1454C54.34 80.3214 54.148 80.2791 54.0486 80.2381C53.9493 80.1971 53.7834 80.0911 53.7834 79.8413V69.7604C53.7834 69.0481 53.2061 68.4714 52.4944 68.4714H3.00781C2.77081 68.4714 2.57812 68.278 2.57812 68.0417V23.4233C2.57812 23.187 2.77081 22.9937 3.00781 22.9937H44.2209V24.4324C44.2209 26.0908 45.5704 27.4402 47.2287 27.4402H56.8456C57.558 27.4402 58.1347 26.8629 58.1347 26.1512C58.1347 25.4388 57.558 24.8621 56.8456 24.8621H47.2287C46.9917 24.8621 46.799 24.6688 46.799 24.4324V7.99219C46.799 7.75519 46.9917 7.5625 47.2287 7.5625H84.9922C85.2292 7.5625 85.4219 7.75519 85.4219 7.99219V11.2169C85.4219 11.9292 85.9986 12.5059 86.7109 12.5059Z" fill="#F3BA4B"/>
<path d="M53.3252 20.0215H61.8122C62.5245 20.0215 63.1013 19.4441 63.1013 18.7324C63.1013 18.0208 62.5245 17.4434 61.8122 17.4434H53.3252C52.6135 17.4434 52.0361 18.0208 52.0361 18.7324C52.0361 19.4441 52.6135 20.0215 53.3252 20.0215Z" fill="#F3BA4B"/>
<path d="M53.3252 14.9819H55.9275C56.6398 14.9819 57.2166 14.4045 57.2166 13.6929C57.2166 12.9812 56.6398 12.4038 55.9275 12.4038H53.3252C52.6135 12.4038 52.0361 12.9812 52.0361 13.6929C52.0361 14.4045 52.6135 14.9819 53.3252 14.9819Z" fill="#F3BA4B"/>
<path d="M79.9342 12.4038H61.5557C60.8433 12.4038 60.2666 12.9812 60.2666 13.6929C60.2666 14.4045 60.8433 14.9819 61.5557 14.9819H79.9342C80.6465 14.9819 81.2233 14.4045 81.2233 13.6929C81.2233 12.9812 80.6465 12.4038 79.9342 12.4038Z" fill="#F3BA4B"/>
<path d="M79.9349 17.4434H67.4404C66.7288 17.4434 66.1514 18.0208 66.1514 18.7324C66.1514 19.4441 66.7288 20.0215 67.4404 20.0215H79.9349C80.6473 20.0215 81.224 19.4441 81.224 18.7324C81.224 18.0208 80.6473 17.4434 79.9349 17.4434Z" fill="#F3BA4B"/>
<path d="M38.04 40.3497C38.7517 40.3497 39.3291 39.773 39.3291 39.0607V37.5688C39.3291 35.9105 37.9796 34.561 36.3213 34.561H27.04C25.3817 34.561 24.0322 35.9105 24.0322 37.5688V45.1313C24.0322 46.7897 25.3817 48.1392 27.04 48.1392H32.4541C32.4528 48.9374 32.1258 49.7149 31.5571 50.2722C31.022 50.7965 30.3258 51.0771 29.6041 51.0617C28.6433 51.0402 27.7148 51.4269 27.0515 52.1185C26.3881 52.81 26.0417 53.7567 26.1014 54.7154C26.2136 56.5255 27.7383 57.9354 29.5765 57.9354H29.6021C34.9651 57.8978 39.3291 53.5029 39.3291 48.1385V44.9944C39.3291 44.2827 38.7517 43.7053 38.04 43.7053C37.3277 43.7053 36.751 44.2827 36.751 44.9944V48.1385C36.751 52.0916 33.5357 55.3297 29.5839 55.3572C29.5812 55.3572 29.5792 55.3572 29.5772 55.3572C29.1066 55.3572 28.7017 54.9987 28.6742 54.5549C28.6541 54.2246 28.8145 54.0051 28.9119 53.903C29.0797 53.7278 29.3073 53.6311 29.551 53.6392C30.9703 53.6674 32.3265 53.1269 33.3605 52.1138C34.4226 51.0738 35.0316 49.6236 35.0316 48.1345V46.8494C35.0316 46.1378 34.4548 45.5604 33.7425 45.5604H27.0394C26.803 45.5604 26.6097 45.3677 26.6097 45.1307V37.5682C26.6097 37.3312 26.803 37.1385 27.0394 37.1385H36.3206C36.5576 37.1385 36.7503 37.3312 36.7503 37.5682V39.0607C36.751 39.773 37.3284 40.3497 38.04 40.3497Z" fill="#F3BA4B"/>
<path d="M47.9107 51.0617C46.9513 51.0416 46.0214 51.4269 45.3581 52.1185C44.6948 52.81 44.3483 53.7567 44.4081 54.7154C44.5202 56.5261 46.0443 57.9354 47.8832 57.9354H47.9087C53.2717 57.8978 57.6357 53.5029 57.6357 48.1392V37.5688C57.6357 35.9105 56.2863 34.561 54.6279 34.561H45.3467C43.6884 34.561 42.3389 35.9105 42.3389 37.5688V45.1313C42.3389 46.7897 43.6884 48.1392 45.3467 48.1392H50.7607C50.7594 48.9374 50.4331 49.7149 49.8638 50.2722C49.3287 50.7965 48.6331 51.0771 47.9107 51.0617ZM52.0498 45.561H45.3467C45.1097 45.561 44.917 45.3683 44.917 45.1313V37.5688C44.917 37.3318 45.1097 37.1392 45.3467 37.1392H54.6279C54.8649 37.1392 55.0576 37.3318 55.0576 37.5688V48.1392C55.0576 52.0916 51.8423 55.3297 47.8906 55.3572C47.8879 55.3572 47.8859 55.3572 47.8839 55.3572C47.4132 55.3572 47.0084 54.9987 46.9808 54.5556C46.9607 54.2246 47.1205 54.0051 47.2185 53.9037C47.3823 53.7325 47.6025 53.6385 47.8389 53.6385C47.8449 53.6385 47.851 53.6385 47.8577 53.6392C49.2817 53.6687 50.6339 53.1269 51.6678 52.1138C52.7292 51.0738 53.3389 49.6236 53.3389 48.1345V46.8494C53.3389 46.1378 52.7615 45.561 52.0498 45.561Z" fill="#F3BA4B"/>
</g>
<defs>
<clipPath id="clip0">
<rect width="88" height="88" fill="white"/>
</clipPath>
</defs>
</svg>
