<svg width="88" height="89" viewBox="0 0 88 89" fill="none" xmlns="http://www.w3.org/2000/svg">
<g clip-path="url(#clip0)">
<path d="M86.7109 12.8757C87.4233 12.8757 88 12.2963 88 11.5807V8.34102C88 6.67498 86.6505 5.31921 84.9922 5.31921H47.2287C45.5704 5.31921 44.2209 6.67498 44.2209 8.34102V20.8221H3.00781C1.34949 20.8221 0 22.1779 0 23.8439V68.6691C0 70.3352 1.34949 71.6909 3.00781 71.6909H51.2053V80.5243C51.2053 81.7506 51.9338 82.8467 53.0624 83.3161C53.4363 83.4719 53.8284 83.5475 54.2165 83.5475C54.9973 83.5475 55.7634 83.2406 56.3401 82.6605L67.2589 71.6909H78.6597C80.3187 71.6909 81.6675 70.3352 81.6675 68.6691V27.8795H84.9922C86.6505 27.8795 88 26.5238 88 24.8577V17.542C88 16.827 87.4233 16.2469 86.7109 16.2469C85.9986 16.2469 85.4219 16.827 85.4219 17.542V24.8577C85.4219 25.0952 85.2292 25.2894 84.9922 25.2894H74.9576C74.6159 25.2894 74.2876 25.4257 74.0459 25.6685L69.5664 30.1688C69.3898 30.3462 69.1978 30.303 69.0984 30.2619C68.9991 30.2208 68.8333 30.1142 68.8333 29.8633V26.5845C68.8333 25.8695 68.2559 25.2894 67.5442 25.2894H62.7794C62.067 25.2894 61.4903 25.8695 61.4903 26.5845C61.4903 27.2995 62.067 27.8795 62.7794 27.8795H66.2551V29.8633C66.2551 31.0902 66.9836 32.1856 68.1115 32.6551C68.4861 32.8109 68.8776 32.8864 69.2656 32.8864C70.0471 32.8864 70.8132 32.5795 71.3899 32.0001L75.4914 27.8795H79.0894V68.6698C79.0894 68.9072 78.8967 69.1015 78.6597 69.1015H66.7251C66.3827 69.1015 66.0551 69.2378 65.8134 69.4806L54.5166 80.8299C54.34 81.0066 54.148 80.9641 54.0486 80.923C53.9493 80.8818 53.7834 80.7752 53.7834 80.5243V70.3966C53.7834 69.6809 53.2061 69.1015 52.4944 69.1015H3.00781C2.77081 69.1015 2.57812 68.9072 2.57812 68.6698V23.8439C2.57812 23.6065 2.77081 23.4123 3.00781 23.4123H44.2209V24.8577C44.2209 26.5238 45.5704 27.8795 47.2287 27.8795H56.8456C57.558 27.8795 58.1347 27.2995 58.1347 26.5845C58.1347 25.8688 57.558 25.2894 56.8456 25.2894H47.2287C46.9917 25.2894 46.799 25.0952 46.799 24.8577V8.34102C46.799 8.10291 46.9917 7.90933 47.2287 7.90933H84.9922C85.2292 7.90933 85.4219 8.10291 85.4219 8.34102V11.5807C85.4219 12.2963 85.9986 12.8757 86.7109 12.8757Z" fill="white"/>
<path d="M53.3262 20.4262H61.8132C62.5255 20.4262 63.1022 19.8461 63.1022 19.1311C63.1022 18.4161 62.5255 17.8361 61.8132 17.8361H53.3262C52.6145 17.8361 52.0371 18.4161 52.0371 19.1311C52.0371 19.8461 52.6145 20.4262 53.3262 20.4262Z" fill="white"/>
<path d="M53.3262 15.3633H55.9285C56.6408 15.3633 57.2175 14.7832 57.2175 14.0683C57.2175 13.3533 56.6408 12.7732 55.9285 12.7732H53.3262C52.6145 12.7732 52.0371 13.3533 52.0371 14.0683C52.0371 14.7832 52.6145 15.3633 53.3262 15.3633Z" fill="white"/>
<path d="M79.9352 12.7732H61.5566C60.8443 12.7732 60.2676 13.3533 60.2676 14.0683C60.2676 14.7832 60.8443 15.3633 61.5566 15.3633H79.9352C80.6475 15.3633 81.2242 14.7832 81.2242 14.0683C81.2242 13.3533 80.6475 12.7732 79.9352 12.7732Z" fill="white"/>
<path d="M79.934 17.8361H67.4395C66.7278 17.8361 66.1504 18.4161 66.1504 19.1311C66.1504 19.8461 66.7278 20.4262 67.4395 20.4262H79.934C80.6463 20.4262 81.223 19.8461 81.223 19.1311C81.223 18.4161 80.6463 17.8361 79.934 17.8361Z" fill="white"/>
<path d="M38.041 40.8489C38.7527 40.8489 39.3301 40.2695 39.3301 39.5539V38.0551C39.3301 36.3891 37.9806 35.0333 36.3223 35.0333H27.041C25.3827 35.0333 24.0332 36.3891 24.0332 38.0551V45.6528C24.0332 47.3188 25.3827 48.6746 27.041 48.6746H32.4551C32.4537 49.4766 32.1268 50.2577 31.5581 50.8175C31.023 51.3443 30.3268 51.6263 29.605 51.6107C28.6443 51.5892 27.7158 51.9777 27.0524 52.6724C26.3891 53.3672 26.0427 54.3182 26.1024 55.2814C26.2145 57.0999 27.7393 58.5164 29.5775 58.5164H29.603C34.9661 58.4786 39.3301 54.0633 39.3301 48.6739V45.5152C39.3301 44.8002 38.7527 44.2201 38.041 44.2201C37.3287 44.2201 36.752 44.8002 36.752 45.5152V48.6739C36.752 52.6454 33.5367 55.8986 29.5849 55.9263C29.5822 55.9263 29.5802 55.9263 29.5782 55.9263C29.1075 55.9263 28.7027 55.5661 28.6752 55.1202C28.655 54.7884 28.8155 54.5678 28.9128 54.4653C29.0807 54.2892 29.3083 54.1921 29.552 54.2002C30.9713 54.2285 32.3275 53.6855 33.3615 52.6677C34.4236 51.6229 35.0325 50.1659 35.0325 48.6699V47.3789C35.0325 46.6639 34.4558 46.0838 33.7435 46.0838H27.0403C26.804 46.0838 26.6107 45.8902 26.6107 45.6521V38.0545C26.6107 37.8164 26.804 37.6228 27.0403 37.6228H36.3216C36.5586 37.6228 36.7513 37.8164 36.7513 38.0545V39.5539C36.752 40.2695 37.3293 40.8489 38.041 40.8489Z" fill="white"/>
<path d="M47.9117 51.6107C46.9523 51.5905 46.0224 51.9777 45.3591 52.6724C44.6957 53.3672 44.3493 54.3182 44.4091 55.2814C44.5212 57.1006 46.0452 58.5164 47.8842 58.5164H47.9097C53.2727 58.4786 57.6367 54.0633 57.6367 48.6746V38.0551C57.6367 36.3891 56.2872 35.0333 54.6289 35.0333H45.3477C43.6893 35.0333 42.3398 36.3891 42.3398 38.0551V45.6528C42.3398 47.3188 43.6893 48.6746 45.3477 48.6746H50.7617C50.7604 49.4766 50.4341 50.2577 49.8647 50.8175C49.3297 51.3443 48.6341 51.6263 47.9117 51.6107ZM52.0508 46.0845H45.3477C45.1107 46.0845 44.918 45.8909 44.918 45.6528V38.0551C44.918 37.817 45.1107 37.6234 45.3477 37.6234H54.6289C54.8659 37.6234 55.0586 37.817 55.0586 38.0551V48.6746C55.0586 52.6454 51.8433 55.8986 47.8915 55.9263C47.8889 55.9263 47.8868 55.9263 47.8848 55.9263C47.4142 55.9263 47.0093 55.5661 46.9818 55.1209C46.9617 54.7884 47.1215 54.5678 47.2195 54.4659C47.3833 54.2939 47.6035 54.1995 47.8398 54.1995C47.8459 54.1995 47.8519 54.1995 47.8586 54.2002C49.2827 54.2299 50.6348 53.6855 51.6688 52.6677C52.7302 51.6229 53.3398 50.1659 53.3398 48.6699V47.3789C53.3398 46.6639 52.7625 46.0845 52.0508 46.0845Z" fill="white"/>
</g>
<defs>
<clipPath id="clip0">
<rect y="0.311646" width="88" height="88.4093" fill="white"/>
</clipPath>
</defs>
</svg>
