<svg width="22" height="22" viewBox="0 0 22 22" fill="none" xmlns="http://www.w3.org/2000/svg">
<path d="M11.0007 1.83322C9.18766 1.83322 7.41538 2.37084 5.90793 3.37808C4.40048 4.38533 3.22556 5.81697 2.53176 7.49196C1.83796 9.16695 1.65643 11.0101 2.01012 12.7882C2.36382 14.5664 3.23686 16.1997 4.51884 17.4817C5.80082 18.7637 7.43417 19.6367 9.21233 19.9904C10.9905 20.3441 12.8336 20.1626 14.5086 19.4688C16.1836 18.775 17.6152 17.6001 18.6225 16.0926C19.6297 14.5852 20.1673 12.8129 20.1673 10.9999C20.1645 8.56959 19.1979 6.23964 17.4794 4.52116C15.7609 2.80268 13.4309 1.83601 11.0007 1.83322ZM14.2573 13.6532L10.5906 11.8198C10.4384 11.7437 10.3103 11.6267 10.2208 11.4818C10.1314 11.337 10.084 11.1701 10.084 10.9999V6.41656C10.084 6.17344 10.1806 5.94028 10.3525 5.76837C10.5244 5.59647 10.7575 5.49989 11.0007 5.49989C11.2438 5.49989 11.4769 5.59647 11.6488 5.76837C11.8207 5.94028 11.9173 6.17344 11.9173 6.41656V10.4332L15.0773 12.0132C15.2948 12.1219 15.4602 12.3126 15.5371 12.5433C15.614 12.774 15.5961 13.0257 15.4873 13.2432C15.3786 13.4607 15.1879 13.6261 14.9572 13.7029C14.7265 13.7798 14.4748 13.7619 14.2573 13.6532Z" fill="#232531"/>
</svg>
