<svg width="22" height="22" viewBox="0 0 22 22" fill="none" xmlns="http://www.w3.org/2000/svg">
<path d="M17.6 0H4.39998C1.96995 0 0 1.96995 0 4.39998V17.6C0 20.0301 1.96995 22 4.39998 22H17.6C20.0301 22 22 20.0301 22 17.6V4.40008C22.0001 1.96995 20.0301 0 17.6 0ZM15.4 3.30001H18.7V6.60002H15.4V3.30001ZM11 6.60011C13.43 6.60011 15.4 8.57006 15.4 11.0001C15.4 13.4301 13.43 15.4001 11 15.4001C8.56997 15.4001 6.60002 13.4301 6.60002 11.0001C6.60002 8.57006 8.56997 6.60011 11 6.60011ZM19.8001 17.6001C19.8001 18.8151 18.815 19.8001 17.6 19.8001H4.39998C3.18497 19.8001 2.19994 18.8151 2.19994 17.6001V9.90003H4.50992C3.84933 13.4848 6.21972 16.9263 9.80446 17.587C13.3892 18.2477 16.8307 15.8772 17.4914 12.2924C17.57 11.8663 17.6064 11.4334 17.6 11.0001C17.5945 10.6309 17.5578 10.263 17.49 9.90012H19.8V17.6001H19.8001Z" fill="white"/>
</svg>
