<svg width="12" height="22" viewBox="0 0 12 22" fill="none" xmlns="http://www.w3.org/2000/svg">
<path d="M11.4463 0.00457747L8.59342 0C5.38831 0 3.31703 2.12509 3.31703 5.41423V7.91055H0.448587C0.20072 7.91055 0 8.1115 0 8.35937V11.9763C0 12.2241 0.200949 12.4249 0.448587 12.4249H3.31703V21.5514C3.31703 21.7993 3.51775 22 3.76561 22H7.50811C7.75598 22 7.9567 21.799 7.9567 21.5514V12.4249H11.3106C11.5584 12.4249 11.7592 12.2241 11.7592 11.9763L11.7605 8.35937C11.7605 8.24036 11.7132 8.12638 11.6292 8.04215C11.5452 7.95793 11.4307 7.91055 11.3117 7.91055H7.9567V5.79439C7.9567 4.77727 8.19907 4.26094 9.52401 4.26094L11.4458 4.26025C11.6935 4.26025 11.8942 4.0593 11.8942 3.81166V0.453169C11.8942 0.205757 11.6937 0.00503522 11.4463 0.00457747Z" fill="white"/>
</svg>
