<svg width="16" height="22" viewBox="0 0 16 22" fill="none" xmlns="http://www.w3.org/2000/svg">
<path d="M8 0C3.58854 0 0 3.58896 0 8C0 13.9019 7.38108 20.9167 7.69533 21.2127C7.78125 21.293 7.89062 21.3333 8 21.3333C8.10938 21.3333 8.21875 21.293 8.30471 21.2127C8.61892 20.9167 16 13.9019 16 8C16 3.58896 12.4115 0 8 0ZM8 12.4445C5.54946 12.4445 3.55554 10.4505 3.55554 8C3.55554 5.54946 5.5495 3.55554 8 3.55554C10.4505 3.55554 12.4445 5.5495 12.4445 8C12.4445 10.4505 10.4505 12.4445 8 12.4445Z" fill="white"/>
</svg>
