<svg width="10" height="6" viewBox="0 0 10 6" fill="none" xmlns="http://www.w3.org/2000/svg">
<path d="M4.6098 0.1596L0.159755 4.60973C0.0567475 4.71265 -5.19835e-08 4.85005 -4.45532e-08 4.99655C-3.71228e-08 5.14305 0.0567475 5.28045 0.159755 5.38338L0.487394 5.7111C0.700889 5.92435 1.04788 5.92435 1.26105 5.7111L4.99793 1.97422L8.73895 5.71524C8.84196 5.81817 8.97928 5.875 9.1257 5.875C9.27228 5.875 9.4096 5.81817 9.51269 5.71524L9.84025 5.38752C9.94325 5.28452 10 5.1472 10 5.0007C10 4.85419 9.94325 4.7168 9.84025 4.61387L5.38613 0.1596C5.2828 0.0564297 5.14484 -0.000236228 4.99817 8.89803e-05C4.85094 -0.000236217 4.71305 0.0564297 4.6098 0.1596Z" fill="#CBCBCB"/>
</svg>
