<svg width="10" height="6" viewBox="0 0 10 6" fill="none" xmlns="http://www.w3.org/2000/svg">
<path d="M5.3902 5.7154L9.84025 1.26527C9.94325 1.16235 10 1.02495 10 0.878448C10 0.731945 9.94325 0.594548 9.84025 0.491622L9.51261 0.163901C9.29911 -0.0493491 8.95212 -0.0493491 8.73895 0.163901L5.00207 3.90078L1.26105 0.159755C1.15804 0.0568291 1.02072 3.38217e-07 0.874302 3.43732e-07C0.727717 3.49254e-07 0.590401 0.0568292 0.487312 0.159755L0.159754 0.487476C0.0567475 0.590483 3.69188e-08 0.727799 4.43504e-08 0.874302C5.17819e-08 1.02081 0.0567475 1.1582 0.159754 1.26113L4.61387 5.7154C4.7172 5.81857 4.85516 5.87524 5.00183 5.87491C5.14906 5.87524 5.28695 5.81857 5.3902 5.7154Z" fill="#CBCBCB"/>
</svg>
