<svg width="17" height="28" viewBox="0 0 17 28" fill="none" xmlns="http://www.w3.org/2000/svg">
<path d="M0.446098 12.9074L12.9065 0.447313C13.1946 0.158893 13.5794 0 13.9896 0C14.3998 0 14.7845 0.158893 15.0727 0.447313L15.9903 1.3647C16.5874 1.96249 16.5874 2.93406 15.9903 3.53093L5.52703 13.9942L16.0019 24.4691C16.2901 24.7575 16.4492 25.142 16.4492 25.552C16.4492 25.9624 16.2901 26.3469 16.0019 26.6355L15.0843 27.5527C14.7959 27.8411 14.4114 28 14.0012 28C13.591 28 13.2063 27.8411 12.9181 27.5527L0.446098 15.0812C0.157223 14.7918 -0.00144386 14.4055 -0.00053215 13.9949C-0.00144386 13.5826 0.157223 13.1965 0.446098 12.9074Z" fill="white"/>
</svg>
