<svg width="17" height="28" viewBox="0 0 17 28" fill="none" xmlns="http://www.w3.org/2000/svg">
<path d="M16.0031 12.9074L3.54277 0.447313C3.25457 0.158893 2.86986 0 2.45965 0C2.04945 0 1.66473 0.158893 1.37654 0.447313L0.458923 1.3647C-0.138178 1.96249 -0.138178 2.93406 0.458923 3.53093L10.9222 13.9942L0.447313 24.4691C0.159121 24.7575 0 25.142 0 25.552C0 25.9624 0.159121 26.3469 0.447313 26.6355L1.36493 27.5527C1.65335 27.8411 2.03784 28 2.44805 28C2.85825 28 3.24297 27.8411 3.53116 27.5527L16.0031 15.0812C16.292 14.7918 16.4507 14.4055 16.4498 13.9949C16.4507 13.5826 16.292 13.1965 16.0031 12.9074Z" fill="#F3BA4B"/>
</svg>
