<svg width="85" height="85" viewBox="0 0 85 85" fill="none" xmlns="http://www.w3.org/2000/svg">
<path d="M42.5 0C19.097 0 0 19.1002 0 42.5C0 65.903 19.1002 85 42.5 85C65.903 85 85 65.8998 85 42.5C85 19.097 65.8998 0 42.5 0ZM42.5 80.0195C21.8116 80.0195 4.98047 63.1884 4.98047 42.5C4.98047 21.8116 21.8116 4.98047 42.5 4.98047C63.1884 4.98047 80.0195 21.8116 80.0195 42.5C80.0195 63.1884 63.1884 80.0195 42.5 80.0195Z" fill="white"/>
<path d="M30.0488 67.0749L66.9114 42.5L30.0488 17.9252V67.0749ZM35.0293 27.2311L57.9323 42.5L35.0293 57.7689V27.2311Z" fill="white"/>
</svg>
