<svg width="17" height="28" viewBox="0 0 17 28" fill="none" xmlns="http://www.w3.org/2000/svg">
<path d="M0.446587 12.9074L12.9069 0.447313C13.1951 0.158893 13.5798 0 13.9901 0C14.4003 0 14.785 0.158893 15.0732 0.447313L15.9908 1.3647C16.5879 1.96249 16.5879 2.93406 15.9908 3.53093L5.52752 13.9942L16.0024 24.4691C16.2906 24.7575 16.4497 25.142 16.4497 25.552C16.4497 25.9624 16.2906 26.3469 16.0024 26.6355L15.0848 27.5527C14.7964 27.8411 14.4119 28 14.0017 28C13.5915 28 13.2067 27.8411 12.9185 27.5527L0.446587 15.0812C0.157711 14.7918 -0.000955582 14.4055 -4.3869e-05 13.9949C-0.000955582 13.5826 0.157711 13.1965 0.446587 12.9074Z" fill="white"/>
</svg>
