<svg width="30" height="30" viewBox="0 0 30 30" fill="none" xmlns="http://www.w3.org/2000/svg">
<circle cx="15" cy="15" r="14" stroke="white" stroke-width="2"/>
<path d="M18.1338 14.5497L12.999 9.41505C12.8802 9.29619 12.7217 9.23071 12.5527 9.23071C12.3836 9.23071 12.2251 9.29619 12.1063 9.41505L11.7282 9.79309C11.4821 10.0394 11.4821 10.4398 11.7282 10.6858L16.04 14.9976L11.7234 19.3141C11.6046 19.433 11.5391 19.5914 11.5391 19.7604C11.5391 19.9295 11.6046 20.0879 11.7234 20.2069L12.1015 20.5848C12.2204 20.7037 12.3788 20.7692 12.5479 20.7692C12.7169 20.7692 12.8754 20.7037 12.9942 20.5848L18.1338 15.4455C18.2528 15.3263 18.3182 15.1671 18.3178 14.9978C18.3182 14.8279 18.2528 14.6688 18.1338 14.5497Z" fill="white"/>
</svg>
