<svg width="30" height="30" viewBox="0 0 30 30" fill="none" xmlns="http://www.w3.org/2000/svg">
<circle cx="15" cy="15" r="14" stroke="#232531" stroke-width="2"/>
<path d="M18.1333 14.5497L12.9985 9.41505C12.8797 9.29619 12.7212 9.23071 12.5522 9.23071C12.3831 9.23071 12.2246 9.29619 12.1058 9.41505L11.7277 9.79309C11.4816 10.0394 11.4816 10.4398 11.7277 10.6858L16.0395 14.9976L11.7229 19.3141C11.6041 19.433 11.5386 19.5914 11.5386 19.7604C11.5386 19.9295 11.6041 20.0879 11.7229 20.2069L12.101 20.5848C12.2199 20.7037 12.3783 20.7692 12.5474 20.7692C12.7164 20.7692 12.875 20.7037 12.9937 20.5848L18.1333 15.4455C18.2523 15.3263 18.3177 15.1671 18.3173 14.9978C18.3177 14.8279 18.2523 14.6688 18.1333 14.5497Z" fill="#232531"/>
</svg>
