<svg width="19" height="15" viewBox="0 0 19 15" fill="none" xmlns="http://www.w3.org/2000/svg">
<path d="M7.56692 14.4891C7.85406 14.7626 8.30939 14.7518 8.58287 14.4643C8.85671 14.1768 8.84521 13.7218 8.55807 13.448L3.04454 8.2187L17.4063 8.2187C17.803 8.2187 18.125 7.8967 18.125 7.49995C18.125 7.1032 17.803 6.7812 17.4063 6.7812L3.06754 6.7812L8.55807 1.55158C8.84557 1.27774 8.85672 0.822768 8.58287 0.535269C8.44164 0.387206 8.25225 0.312456 8.0625 0.312456C7.88425 0.312456 7.70599 0.378222 7.56692 0.510831L1.29618 6.48364C1.02449 6.75497 0.874991 7.11578 0.874991 7.49995C0.874991 7.88412 1.02449 8.24493 1.30876 8.52848L7.56692 14.4891Z" fill="#232531"/>
</svg>
