<svg width="8" height="5" viewBox="0 0 8 5" fill="none" xmlns="http://www.w3.org/2000/svg">
<path d="M4.14631 4.39646L7.56942 0.973288C7.64865 0.894114 7.69231 0.788424 7.69231 0.675729C7.69231 0.563035 7.64865 0.457345 7.56942 0.378171L7.31739 0.126078C7.15316 -0.0379609 6.88625 -0.0379609 6.72227 0.126078L3.84775 3.0006L0.970035 0.122888C0.890799 0.0437142 0.785171 -2.23779e-07 0.672539 -2.27428e-07C0.559782 -2.31081e-07 0.454154 0.0437142 0.374855 0.122888L0.122887 0.374981C0.0436506 0.454217 -1.46353e-06 0.559845 -1.47017e-06 0.67254C-1.47682e-06 0.785234 0.0436506 0.890924 0.122887 0.970098L3.54913 4.39646C3.62861 4.47582 3.73474 4.51941 3.84756 4.51916C3.96082 4.51941 4.06688 4.47582 4.14631 4.39646Z" fill="#9C9C9C"/>
</svg>
