<svg width="30" height="30" viewBox="0 0 30 30" fill="none" xmlns="http://www.w3.org/2000/svg">
<g clip-path="url(#clip0)">
<path d="M15 0C6.26172 0 1.25 4.55609 1.25 12.5C1.25 20.9513 6.775 30 15 30C23.225 30 28.75 20.9513 28.75 12.5C28.75 4.55609 23.7383 0 15 0ZM23.0731 22.7567C20.9353 25.8155 18.0684 27.5 15 27.5C11.9316 27.5 9.06469 25.8155 6.92688 22.7567C4.9375 19.9103 3.75 16.0759 3.75 12.5C3.75 4.23438 9.86781 2.5 15 2.5C20.1322 2.5 26.25 4.23438 26.25 12.5C26.25 16.0759 25.0625 19.9103 23.0731 22.7567Z" fill="white"/>
<path d="M20 13.75H16.25V10H13.75V13.75H10V10H7.5V15C7.5 15.3315 7.6317 15.6495 7.86612 15.8839C8.10054 16.1183 8.41848 16.25 8.75 16.25H13.75V20H16.25V16.25H20V20H22.5V10H20V13.75Z" fill="white"/>
<path d="M15 23.75C15.6904 23.75 16.25 23.1904 16.25 22.5C16.25 21.8096 15.6904 21.25 15 21.25C14.3096 21.25 13.75 21.8096 13.75 22.5C13.75 23.1904 14.3096 23.75 15 23.75Z" fill="white"/>
<path d="M21.25 23.75C21.9404 23.75 22.5 23.1904 22.5 22.5C22.5 21.8096 21.9404 21.25 21.25 21.25C20.5596 21.25 20 21.8096 20 22.5C20 23.1904 20.5596 23.75 21.25 23.75Z" fill="white"/>
<path d="M21.25 8.75C21.9404 8.75 22.5 8.19036 22.5 7.5C22.5 6.80964 21.9404 6.25 21.25 6.25C20.5596 6.25 20 6.80964 20 7.5C20 8.19036 20.5596 8.75 21.25 8.75Z" fill="white"/>
<path d="M15 8.75C15.6904 8.75 16.25 8.19036 16.25 7.5C16.25 6.80964 15.6904 6.25 15 6.25C14.3096 6.25 13.75 6.80964 13.75 7.5C13.75 8.19036 14.3096 8.75 15 8.75Z" fill="white"/>
<path d="M8.75 8.75C9.44035 8.75 10 8.19036 10 7.5C10 6.80964 9.44035 6.25 8.75 6.25C8.05964 6.25 7.5 6.80964 7.5 7.5C7.5 8.19036 8.05964 8.75 8.75 8.75Z" fill="white"/>
</g>
<defs>
<clipPath id="clip0">
<rect width="30" height="30" fill="white"/>
</clipPath>
</defs>
</svg>
