<svg width="20" height="20" viewBox="0 0 20 20" fill="none" xmlns="http://www.w3.org/2000/svg">
<g clip-path="url(#clip0)">
<path d="M13.9613 8.16552C13.6062 7.81033 13.0304 7.81044 12.6752 8.16552L10.0819 10.7588C9.95352 10.7283 9.81985 10.7118 9.68227 10.7118C8.72777 10.7118 7.95117 11.489 7.95117 12.4444C7.95117 13.3999 8.72774 14.1771 9.68227 14.1771C10.6377 14.1771 11.415 13.3998 11.415 12.4444C11.415 12.3069 11.3984 12.1732 11.368 12.0448L13.9612 9.45158C14.3165 9.0965 14.3165 8.52064 13.9613 8.16552Z" fill="#232531"/>
<path d="M17.0735 4.69139C13.1738 0.791575 6.82687 0.79138 2.92491 4.69158C-0.442794 8.061 -0.96467 13.3757 1.68389 17.3288C1.96342 17.746 2.52842 17.8575 2.94565 17.5781C3.36288 17.2986 3.47452 16.7336 3.19495 16.3163C2.45077 15.2056 2.01252 13.9634 1.86971 12.6993H2.72475C3.22698 12.6993 3.63417 12.2921 3.63417 11.7898C3.63417 11.2876 3.22698 10.8804 2.72475 10.8804H1.86682C2.03163 9.36968 2.61331 7.90315 3.59385 6.66971L4.21261 7.28854C4.39018 7.46612 4.62292 7.55495 4.85569 7.55495C5.08843 7.55495 5.3212 7.46612 5.4987 7.28854C5.85386 6.93346 5.85386 6.3576 5.4987 6.00244L4.8771 5.38096C6.12921 4.37529 7.61058 3.79197 9.12875 3.63096V4.48979C9.12875 4.99201 9.53594 5.3992 10.0382 5.3992C10.5404 5.3992 10.9476 4.99201 10.9476 4.48979V3.6392C12.4391 3.81154 13.8917 4.39236 15.1224 5.38131L14.5012 6.00248C14.1461 6.35764 14.1462 6.93342 14.5013 7.28862C14.6789 7.4662 14.9116 7.55495 15.1444 7.55495C15.3772 7.55495 15.6099 7.46612 15.7875 7.28854L16.4057 6.67034C17.3864 7.90366 17.9683 9.36999 18.1332 10.8805H17.2753C16.7731 10.8805 16.3659 11.2877 16.3659 11.7899C16.3659 12.2921 16.7731 12.6993 17.2753 12.6993H18.1304C17.9875 13.9634 17.5492 15.2055 16.8047 16.3163C16.5251 16.7335 16.6366 17.2984 17.0538 17.578C17.2093 17.6822 17.3853 17.7321 17.5593 17.7321C17.8524 17.7321 18.1401 17.5906 18.3156 17.3289C20.9652 13.3755 20.4429 8.06069 17.0735 4.69139Z" fill="#232531"/>
<path d="M14.0989 16.4148H5.9016C5.39938 16.4148 4.99219 16.822 4.99219 17.3242C4.99219 17.8264 5.39938 18.2336 5.9016 18.2336H14.0989C14.6012 18.2336 15.0083 17.8264 15.0083 17.3242C15.0083 16.822 14.6012 16.4148 14.0989 16.4148Z" fill="#232531"/>
</g>
<defs>
<clipPath id="clip0">
<rect width="20" height="20" fill="white"/>
</clipPath>
</defs>
</svg>
