<svg width="20" height="20" viewBox="0 0 20 20" fill="none" xmlns="http://www.w3.org/2000/svg">
<path d="M19.5455 7.28692H17.7273C17.6068 7.28692 17.4911 7.33469 17.4058 7.42009C17.3204 7.50532 17.2727 7.62101 17.2727 7.74152V9.10516H15.4546V6.83249C15.4546 6.7118 15.4068 6.59628 15.3214 6.51089C15.2362 6.42566 15.1205 6.37789 15 6.37789H13.6364V5.01425C13.6364 4.89373 13.5886 4.77804 13.5034 4.69282C13.418 4.60742 13.3024 4.55965 13.1818 4.55965H9.54545V3.65061H11.3637C11.6147 3.65061 11.8181 3.44703 11.8181 3.19601C11.8181 2.94499 11.6147 2.74158 11.3637 2.74158H6.81818C6.56716 2.74158 6.36358 2.94499 6.36358 3.19601C6.36358 3.44703 6.56716 3.65061 6.81818 3.65061H8.63642V4.55965H4.99994C4.87943 4.55965 4.76374 4.60742 4.67851 4.69282C4.59328 4.77804 4.54534 4.89373 4.54551 5.01425V6.37789H2.27267C2.15216 6.37789 2.03647 6.42566 1.95124 6.51089C1.86601 6.59628 1.81807 6.7118 1.81824 6.83249V10.4688H0.909035V8.65056C0.909035 8.39954 0.705622 8.19612 0.454601 8.19612C0.20358 8.19612 0 8.39954 0 8.65056V13.1961C0 13.4471 0.20358 13.6507 0.454601 13.6507C0.705622 13.6507 0.909035 13.4471 0.909035 13.1961V11.3778H1.81824V15.0143C1.81807 15.1348 1.86601 15.2505 1.95124 15.3357C2.03647 15.421 2.15216 15.4689 2.27267 15.4687H5.45455V16.8324C5.45455 16.9531 5.50232 17.0686 5.58755 17.154C5.67294 17.2392 5.78846 17.287 5.90915 17.287H15C15.1205 17.287 15.2362 17.2392 15.3214 17.154C15.4068 17.0686 15.4546 16.9531 15.4546 16.8324V14.5597H17.2727V15.9233C17.2727 16.0439 17.3204 16.1595 17.4058 16.2448C17.4911 16.3302 17.6068 16.3779 17.7273 16.3779H19.5455C19.666 16.3779 19.7817 16.3302 19.8669 16.2448C19.9522 16.1595 20.0001 16.0439 19.9999 15.9233V7.74152C20.0001 7.62101 19.9522 7.50532 19.8669 7.42009C19.7817 7.33469 19.666 7.28692 19.5455 7.28692Z" fill="#232531"/>
</svg>
