<svg width="5" height="8" viewBox="0 0 5 8" fill="none" xmlns="http://www.w3.org/2000/svg">
<path d="M0.122703 4.14638L3.54588 7.56949C3.62505 7.64873 3.73074 7.69238 3.84344 7.69238C3.95613 7.69238 4.06182 7.64873 4.14099 7.56949L4.39309 7.31746C4.55713 7.15324 4.55713 6.88632 4.39309 6.72235L1.51856 3.84782L4.39628 0.970111C4.47545 0.890875 4.51917 0.785247 4.51917 0.672615C4.51917 0.559858 4.47545 0.45423 4.39628 0.374931L4.14418 0.122963C4.06495 0.0437269 3.95932 7.4826e-05 3.84663 7.48185e-05C3.73393 7.48109e-05 3.62824 0.0437269 3.54907 0.122963L0.122704 3.5492C0.0433421 3.62869 -0.000247026 3.73482 3.30064e-06 3.84764C-0.000247052 3.96089 0.0433421 4.06696 0.122703 4.14638Z" fill="white"/>
</svg>
