<svg width="20" height="20" viewBox="0 0 20 20" fill="none" xmlns="http://www.w3.org/2000/svg">
<path d="M18.3552 4.7L18.3719 4.68333L14.233 0.555573L13.0552 1.73333L15.3997 4.07776C14.3552 4.47776 13.6108 5.48333 13.6108 6.66667C13.6108 8.2 14.8552 9.44443 16.3885 9.44443C16.783 9.44443 17.1608 9.36109 17.4996 9.21109V17.2222C17.4997 17.8333 16.9997 18.3333 16.3886 18.3333C15.7775 18.3333 15.2775 17.8333 15.2775 17.2222V12.2222C15.2775 10.9945 14.2831 10 13.0552 10H11.9442V2.22224C11.9441 0.994427 10.9497 0 9.72191 0H3.05525C1.82743 0 0.833008 0.994427 0.833008 2.22224V20H11.9441V11.6667H13.6108V17.2222C13.6108 18.7556 14.8552 20 16.3885 20C17.9219 20 19.1663 18.7556 19.1663 17.2222V6.66667C19.1663 5.9 18.8552 5.20557 18.3552 4.7ZM9.72191 7.77776H3.05525V2.22224H9.72191V7.77776ZM16.3886 7.77776C15.7775 7.77776 15.2775 7.27776 15.2775 6.66667C15.2775 6.05557 15.7775 5.55557 16.3886 5.55557C16.9997 5.55557 17.4997 6.05557 17.4997 6.66667C17.4997 7.27776 16.9997 7.77776 16.3886 7.77776Z" fill="#232531"/>
</svg>
