<svg width="20" height="20" viewBox="0 0 20 20" fill="none" xmlns="http://www.w3.org/2000/svg">
<path d="M12.5196 13.3333C12.5621 13.0608 12.5829 12.7808 12.5829 12.5C12.5829 12.2208 12.5621 11.9441 12.5205 11.6733L13.8979 10.5925C14.2212 10.3383 14.3105 9.87839 14.1054 9.51996L13.2163 7.98004C13.0095 7.62253 12.5655 7.46918 12.1829 7.62329L10.5596 8.27744C10.1163 7.92007 9.63533 7.6416 9.1263 7.44827L8.87957 5.71503C8.82128 5.30746 8.46712 5 8.05452 5H6.27794C5.86535 5 5.51119 5.30746 5.4529 5.71579L5.20617 7.44995C4.69622 7.64587 4.21038 7.92755 3.77962 8.27744L2.14876 7.62329C1.76622 7.46994 1.32296 7.62329 1.1162 7.98004L0.227833 9.51996C0.0212286 9.87839 0.111255 10.34 0.437031 10.5933L1.81292 11.6667C1.77034 11.9392 1.74959 12.2192 1.74959 12.5C1.74959 12.7792 1.77034 13.0559 1.812 13.3267L0.434589 14.4075C0.111255 14.6617 0.0221441 15.1216 0.22707 15.48L1.11544 17.02C1.32204 17.3767 1.76622 17.5301 2.14876 17.3767L3.77214 16.7226C4.21541 17.0799 4.69622 17.3584 5.2054 17.5517L5.45214 19.285C5.51119 19.6925 5.86535 20 6.27794 20H8.05452C8.46712 20 8.82128 19.6925 8.87957 19.2842L9.1263 17.55C9.63625 17.3541 10.1221 17.0724 10.5528 16.7226L12.1837 17.3767C12.5679 17.5308 13.0104 17.3775 13.2163 17.02L14.1046 15.48C14.3112 15.1216 14.2212 14.66 13.8954 14.4067L12.5196 13.3333ZM7.16631 15.4167C5.55788 15.4167 4.24959 14.1083 4.24959 12.5C4.24959 10.8917 5.55788 9.58328 7.16631 9.58328C8.77459 9.58328 10.0829 10.8917 10.0829 12.5C10.0829 14.1083 8.77459 15.4167 7.16631 15.4167Z" fill="#232531"/>
<path d="M19.0016 4.5575C19.0175 4.42841 19.0408 4.30084 19.0408 4.16672C19.0408 4.03244 19.0175 3.90503 19.0016 3.77579L19.7525 3.20755C19.9199 3.0809 19.9666 2.84912 19.8616 2.66663L19.1875 1.49994C19.0825 1.31836 18.8582 1.24252 18.6649 1.32416L17.8007 1.68839C17.5899 1.52756 17.3657 1.3858 17.1182 1.2825L17.0033 0.36499C16.9766 0.156708 16.7999 0 16.59 0H15.2425C15.0325 0 14.8549 0.156708 14.8291 0.36499L14.714 1.2825C14.4666 1.3858 14.2416 1.52832 14.0315 1.68839L13.1674 1.32416C12.9733 1.24252 12.749 1.31744 12.644 1.49994L11.9708 2.66663C11.8657 2.84836 11.9124 3.07999 12.0799 3.20755L12.8308 3.77579C12.814 3.90503 12.7908 4.03244 12.7908 4.16672C12.7908 4.30084 12.814 4.42841 12.8299 4.5575L12.0792 5.12589C11.9116 5.25253 11.8649 5.48416 11.9699 5.66666L12.644 6.83334C12.749 7.01508 12.9733 7.09076 13.1667 7.00912L14.0308 6.64413C14.2416 6.80496 14.4658 6.94672 14.7133 7.05002L14.8282 7.96753C14.8549 8.17673 15.0316 8.33328 15.2415 8.33328H16.589C16.7992 8.33328 16.9766 8.17673 17.0024 7.96829L17.1175 7.05078C17.365 6.94748 17.5899 6.80496 17.8 6.64505L18.6641 7.00912C18.8582 7.09076 19.0825 7.01584 19.1875 6.83334L19.8607 5.66666C19.9658 5.48492 19.9191 5.2533 19.7516 5.12589L19.0016 4.5575ZM15.9158 5.83328C14.995 5.83328 14.2491 5.08743 14.2491 4.16672C14.2491 3.24585 14.995 2.5 15.9158 2.5C16.8365 2.5 17.5824 3.24585 17.5824 4.16672C17.5824 5.08743 16.8365 5.83328 15.9158 5.83328Z" fill="#232531"/>
</svg>
