<svg width="30" height="30" viewBox="0 0 30 30" fill="none" xmlns="http://www.w3.org/2000/svg">
<g clip-path="url(#clip0)">
<path d="M27.7388 11.5616L25.6348 4.54834C25.155 2.94891 23.7112 1.875 22.0422 1.875H7.95776C6.28876 1.875 4.84496 2.94891 4.36522 4.54834L2.26123 11.5616C0.932687 12.139 0 13.4611 0 15V22.5C0 23.5355 0.839539 24.375 1.875 24.375H1.87511L1.875 26.2499C1.875 27.2855 2.71442 28.125 3.75 28.125H5.62511C6.66057 28.125 7.50011 27.2855 7.50011 26.25L7.49931 24.375H22.5L22.4999 26.2499C22.4999 27.2855 23.3393 28.125 24.3749 28.125H26.25C27.2856 28.125 28.125 27.2855 28.125 26.25V24.3751L28.1243 24.375H28.125C29.1605 24.375 30 23.5355 30 22.5V15C30 13.4611 29.0673 12.139 27.7388 11.5616L27.7388 11.5616ZM7.95771 5.625H22.0422L23.7297 11.25H6.27016L7.9577 5.625H7.95771ZM7.49994 19.6875C6.46437 19.6875 5.62494 18.848 5.62494 17.8125C5.62494 16.7769 6.46437 15.9375 7.49994 15.9375C8.53552 15.9375 9.37494 16.7769 9.37494 17.8125C9.37494 18.848 8.53552 19.6875 7.49994 19.6875ZM22.4999 19.6875C21.4644 19.6875 20.6249 18.848 20.6249 17.8125C20.6249 16.7769 21.4644 15.9375 22.4999 15.9375C23.5355 15.9375 24.3749 16.7769 24.3749 17.8125C24.3749 18.848 23.5355 19.6875 22.4999 19.6875Z" fill="white"/>
</g>
<defs>
<clipPath id="clip0">
<rect width="30" height="30" fill="white"/>
</clipPath>
</defs>
</svg>
