<svg width="18" height="18" viewBox="0 0 18 18" fill="none" xmlns="http://www.w3.org/2000/svg">
<path d="M11.6008 14.0567H6.40079C6.06945 14.0567 5.80078 14.3253 5.80078 14.6567C5.80078 14.9881 6.06941 15.2567 6.40079 15.2567H11.6008C11.9321 15.2567 12.2008 14.9881 12.2008 14.6567C12.2008 14.3253 11.9322 14.0567 11.6008 14.0567Z" fill="white"/>
<path d="M11.6008 12.1643H6.40079C6.06945 12.1643 5.80078 12.4329 5.80078 12.7643C5.80078 13.0957 6.06941 13.3643 6.40079 13.3643H11.6008C11.9321 13.3643 12.2008 13.0957 12.2008 12.7643C12.2008 12.4329 11.9322 12.1643 11.6008 12.1643Z" fill="white"/>
<path d="M16.6 4.70767H14.6909V1.23511C14.6909 0.903765 14.4223 0.635101 14.0909 0.635101H3.90909C3.57775 0.635101 3.30908 0.90373 3.30908 1.23511V4.70767H1.39999C0.628031 4.70767 0 5.33574 0 6.1077V12.1441C0 12.9161 0.628031 13.5441 1.39999 13.5441H3.30919V16.7649C3.30919 17.0962 3.57782 17.3649 3.9092 17.3649H14.0908C14.4221 17.3649 14.6908 17.0963 14.6908 16.7649V13.5441H16.6C17.372 13.5441 18 12.9161 18 12.1441V6.1077C18 5.33577 17.372 4.70767 16.6 4.70767ZM4.50907 1.83512H13.4909V4.70767H4.50907V1.83512ZM13.4908 16.1649H4.50921C4.50921 16.0476 4.50921 11.4011 4.50921 11.2561H13.4908C13.4908 11.4048 13.4908 16.0521 13.4908 16.1649ZM14.0909 8.23085H12.5636C12.2323 8.23085 11.9636 7.96223 11.9636 7.63084C11.9636 7.29946 12.2322 7.03083 12.5636 7.03083H14.0909C14.4223 7.03083 14.6909 7.29946 14.6909 7.63084C14.6909 7.96223 14.4223 8.23085 14.0909 8.23085Z" fill="white"/>
</svg>
