<svg width="20" height="20" viewBox="0 0 20 20" fill="none" xmlns="http://www.w3.org/2000/svg">
<g clip-path="url(#clip0)">
<path d="M3.4622 5.86081H4.62135C5.26873 5.86081 5.7935 5.33603 5.7935 4.68864V1.17216C5.7935 0.524777 5.26873 0 4.62135 0H3.4622C2.81481 0 2.29004 0.524777 2.29004 1.17216V4.68864C2.29004 5.33603 2.81485 5.86081 3.4622 5.86081Z" fill="#232531"/>
<path d="M16.5383 0H15.3792C14.7318 0 14.207 0.524777 14.207 1.17216V4.68864C14.207 5.33603 14.7318 5.86081 15.3792 5.86081H16.5383C17.1857 5.86081 17.7105 5.33603 17.7105 4.68864V1.17216C17.7105 0.524777 17.1857 0 16.5383 0Z" fill="#232531"/>
<path d="M4.62672 14.1392H3.46757C2.82019 14.1392 2.29541 14.6639 2.29541 15.3113V18.8278C2.29541 19.4752 2.82019 20 3.46757 20H4.62672C5.2741 20 5.79888 19.4752 5.79888 18.8278V15.3113C5.79888 14.6639 5.27406 14.1392 4.62672 14.1392Z" fill="#232531"/>
<path d="M16.5374 14.1392H15.3782C14.7308 14.1392 14.2061 14.6639 14.2061 15.3113V18.8278C14.2061 19.4752 14.7308 20 15.3782 20H16.5374C17.1847 20 17.7095 19.4752 17.7095 18.8278V15.3113C17.7095 14.6639 17.1847 14.1392 16.5374 14.1392Z" fill="#232531"/>
<path d="M9.90258 1.19434C9.14685 1.19434 8.50103 1.67363 8.25296 2.34423H6.93311V3.51639H8.2376C8.41054 4.02569 8.81067 4.43075 9.31697 4.61017V15.4391C8.82544 15.6132 8.43367 15.9999 8.25296 16.4883H6.93311V17.6605H8.2376C8.47317 18.3542 9.13028 18.8549 9.90258 18.8549C10.6749 18.8549 11.332 18.3542 11.5676 17.6605H13.0332V16.4883H11.5522C11.3716 16.0002 10.9802 15.6137 10.4891 15.4394V4.60986C10.995 4.43028 11.3947 4.02538 11.5676 3.51639H13.0333V2.34423H11.5522C11.3041 1.67367 10.6583 1.19434 9.90258 1.19434ZM9.90258 17.6827C9.57942 17.6827 9.3165 17.4198 9.3165 17.0967C9.3165 16.7735 9.57942 16.5106 9.90258 16.5106C10.2257 16.5106 10.4887 16.7735 10.4887 17.0967C10.4887 17.4198 10.2257 17.6827 9.90258 17.6827ZM9.90258 3.53866C9.57942 3.53866 9.3165 3.27574 9.3165 2.95258C9.3165 2.62941 9.57942 2.3665 9.90258 2.3665C10.2257 2.3665 10.4887 2.62941 10.4887 2.95258C10.4887 3.27574 10.2257 3.53866 9.90258 3.53866Z" fill="#232531"/>
</g>
<defs>
<clipPath id="clip0">
<rect width="20" height="20" fill="white"/>
</clipPath>
</defs>
</svg>
