<svg width="20" height="20" viewBox="0 0 20 20" fill="none" xmlns="http://www.w3.org/2000/svg">
<path d="M7.03131 12.2358C6.82791 12.1632 6.64389 12.0548 6.48276 11.9174L5.43555 12.5219C5.84891 12.9872 6.39914 13.3274 7.03131 13.4562V12.2358Z" fill="#232531"/>
<path d="M10.5468 10.586C10.5468 10.2625 10.4815 9.95657 10.3843 9.66528L9.34277 10.2666C9.362 10.3705 9.37497 10.4766 9.37497 10.586C9.37497 10.6954 9.362 10.8015 9.34277 10.9054L10.3843 11.5067C10.4815 11.2154 10.5468 10.9095 10.5468 10.586Z" fill="#232531"/>
<path d="M9.79889 8.64987C9.38553 8.18463 8.8353 7.84436 8.20312 7.71558V8.93597C8.40652 9.00861 8.59055 9.11694 8.75168 9.25443L9.79889 8.64987Z" fill="#232531"/>
<path d="M7.03131 7.71558C6.39914 7.84436 5.84891 8.18463 5.43555 8.64987L6.48276 9.25443C6.64389 9.11694 6.82791 9.00861 7.03131 8.93597V7.71558Z" fill="#232531"/>
<path d="M8.75168 11.9174C8.59055 12.0548 8.40637 12.1632 8.20312 12.2358V13.4562C8.8353 13.3274 9.38553 12.9872 9.79889 12.5219L8.75168 11.9174Z" fill="#232531"/>
<path d="M4.85001 9.66528C4.75281 9.95657 4.6875 10.2625 4.6875 10.586C4.6875 10.9095 4.75281 11.2154 4.85001 11.5067L5.89157 10.9054C5.87234 10.8015 5.85938 10.6954 5.85938 10.586C5.85938 10.4766 5.87234 10.3705 5.89157 10.2666L4.85001 9.66528Z" fill="#232531"/>
<path d="M7.61719 11.1719C7.94052 11.1719 8.20312 10.9093 8.20312 10.5859C8.20312 10.2626 7.94052 10 7.61719 10C7.29385 10 7.03125 10.2626 7.03125 10.5859C7.03125 10.9093 7.29385 11.1719 7.61719 11.1719Z" fill="#232531"/>
<path d="M18.8281 1.79688C18.1808 1.79688 17.6562 2.32147 17.6562 2.96875V10C17.6562 10.6471 18.1808 11.1719 18.8281 11.1719C19.4754 11.1719 20 10.6471 20 10V2.96875C20 2.32147 19.4754 1.79688 18.8281 1.79688Z" fill="#232531"/>
<path d="M7.61719 18.2031C11.6203 18.2031 14.9117 15.0995 15.2121 11.1719H13.4789C12.8508 11.1719 12.2485 11.0002 11.7078 10.6943C11.646 13.0139 9.72412 14.6875 7.61719 14.6875C5.3067 14.6875 3.51562 12.7478 3.51562 10.5859C3.51562 8.45963 5.2562 6.48438 7.61719 6.48438C9.13483 6.48438 10.4848 7.34894 11.1688 8.53577C11.1707 8.53882 11.1703 8.54218 11.172 8.54523L11.1734 8.54431C11.6975 9.45923 12.5577 10 13.4789 10H16.4844V2.96875H7.61719C3.41721 2.96875 0 6.38596 0 10.5859C0 14.7859 3.41721 18.2031 7.61719 18.2031ZM14.6484 4.72656C14.9721 4.72656 15.2344 4.98886 15.2344 5.3125C15.2344 5.63614 14.9721 5.89844 14.6484 5.89844C14.3248 5.89844 14.0625 5.63614 14.0625 5.3125C14.0625 4.98886 14.3248 4.72656 14.6484 4.72656ZM14.6484 7.07031C14.9721 7.07031 15.2344 7.33261 15.2344 7.65625C15.2344 7.97989 14.9721 8.24219 14.6484 8.24219C14.3248 8.24219 14.0625 7.97989 14.0625 7.65625C14.0625 7.33261 14.3248 7.07031 14.6484 7.07031Z" fill="#232531"/>
</svg>
