<svg width="20" height="20" viewBox="0 0 20 20" fill="none" xmlns="http://www.w3.org/2000/svg">
<path d="M18.3557 4.7L18.3724 4.68333L14.2335 0.555573L13.0557 1.73333L15.4002 4.07776C14.3557 4.47776 13.6113 5.48333 13.6113 6.66667C13.6113 8.2 14.8557 9.44443 16.389 9.44443C16.7834 9.44443 17.1613 9.36109 17.5001 9.21109V17.2222C17.5002 17.8333 17.0002 18.3333 16.3891 18.3333C15.778 18.3333 15.278 17.8333 15.278 17.2222V12.2222C15.278 10.9945 14.2835 10 13.0557 10H11.9446V2.22224C11.9446 0.994427 10.9502 0 9.7224 0H3.05574C1.82792 0 0.833496 0.994427 0.833496 2.22224V20H11.9446V11.6667H13.6113V17.2222C13.6113 18.7556 14.8557 20 16.389 20C17.9223 20 19.1668 18.7556 19.1668 17.2222V6.66667C19.1668 5.9 18.8557 5.20557 18.3557 4.7ZM9.7224 7.77776H3.05574V2.22224H9.7224V7.77776ZM16.3891 7.77776C15.778 7.77776 15.278 7.27776 15.278 6.66667C15.278 6.05557 15.778 5.55557 16.3891 5.55557C17.0002 5.55557 17.5002 6.05557 17.5002 6.66667C17.5002 7.27776 17.0002 7.77776 16.3891 7.77776Z" fill="#232531"/>
</svg>
