<svg width="12" height="7" viewBox="0 0 12 7" fill="none" xmlns="http://www.w3.org/2000/svg">
<path d="M6.22006 6.59469L11.3547 1.45993C11.4736 1.34117 11.5391 1.18264 11.5391 1.01359C11.5391 0.844552 11.4736 0.686017 11.3547 0.567256L10.9767 0.189117C10.7303 -0.0569413 10.33 -0.0569413 10.084 0.189117L5.77222 4.5009L1.45566 0.184332C1.3368 0.0655716 1.17836 -1.54829e-07 1.00941 -1.57354e-07C0.840275 -1.59881e-07 0.681833 0.0655715 0.562885 0.184332L0.184933 0.562472C0.0660781 0.681326 0.000600707 0.839768 0.000600686 1.00881C0.000600664 1.17785 0.066078 1.33639 0.184933 1.45515L5.32429 6.59469C5.44352 6.71373 5.60271 6.77912 5.77194 6.77874C5.94183 6.77912 6.10093 6.71373 6.22006 6.59469Z" fill="#232531"/>
</svg>
