<svg width="12" height="7" viewBox="0 0 12 7" fill="none" xmlns="http://www.w3.org/2000/svg">
<path d="M6.21909 6.59469L11.3538 1.45993C11.4726 1.34117 11.5381 1.18264 11.5381 1.01359C11.5381 0.844552 11.4726 0.686017 11.3538 0.567256L10.9757 0.189117C10.7294 -0.0569413 10.329 -0.0569413 10.083 0.189117L5.77125 4.5009L1.45468 0.184332C1.33582 0.0655716 1.17738 -1.54829e-07 1.00843 -1.57354e-07C0.839298 -1.59881e-07 0.680857 0.0655715 0.561909 0.184332L0.183956 0.562472C0.0651015 0.681326 -0.000375855 0.839768 -0.000375877 1.00881C-0.000375898 1.17785 0.0651015 1.33639 0.183956 1.45515L5.32331 6.59469C5.44254 6.71373 5.60174 6.77912 5.77096 6.77874C5.94085 6.77912 6.09995 6.71373 6.21909 6.59469Z" fill="#232531"/>
</svg>
